<mxfile host="app.diagrams.net" modified="2021-08-08T07:41:02.741Z" agent="5.0 (Macintosh; Intel Mac OS X 10_15_7) AppleWebKit/537.36 (KHTML, like Gecko) Chrome/92.0.4515.107 Safari/537.36" etag="lUn7TOmhXWj0Zf8_4xdk" version="14.9.5" type="github">
  <diagram id="jp8yHP9Ibn28CGlXs_KF" name="Page-1">
    <mxGraphModel dx="946" dy="646" grid="1" gridSize="10" guides="1" tooltips="1" connect="1" arrows="1" fold="1" page="1" pageScale="1" pageWidth="827" pageHeight="1169" math="0" shadow="0">
      <root>
        <mxCell id="0" />
        <mxCell id="1" parent="0" />
        <mxCell id="bI33se_3_5vqXSz07rr9-1" value="" style="rounded=0;whiteSpace=wrap;html=1;fillColor=#189AB4;" vertex="1" parent="1">
          <mxGeometry y="120" width="820" height="460" as="geometry" />
        </mxCell>
        <mxCell id="bI33se_3_5vqXSz07rr9-2" value="" style="whiteSpace=wrap;html=1;fillColor=#05445E;" vertex="1" parent="1">
          <mxGeometry y="120" width="82" height="460" as="geometry" />
        </mxCell>
        <mxCell id="bI33se_3_5vqXSz07rr9-3" value="" style="whiteSpace=wrap;html=1;fillColor=#05445E;" vertex="1" parent="1">
          <mxGeometry x="738" y="120" width="82" height="460" as="geometry" />
        </mxCell>
        <mxCell id="bI33se_3_5vqXSz07rr9-4" value="" style="rounded=1;whiteSpace=wrap;html=1;fillColor=#D4F1F4;" vertex="1" parent="1">
          <mxGeometry x="270" y="310" width="190" height="30" as="geometry" />
        </mxCell>
        <mxCell id="bI33se_3_5vqXSz07rr9-5" value="" style="rounded=1;whiteSpace=wrap;html=1;fillColor=#75E6DA;" vertex="1" parent="1">
          <mxGeometry x="470" y="310" width="50" height="30" as="geometry" />
        </mxCell>
        <mxCell id="bI33se_3_5vqXSz07rr9-6" value="" style="whiteSpace=wrap;html=1;fillColor=#75E6DA;" vertex="1" parent="1">
          <mxGeometry x="80" y="120" width="660" height="40" as="geometry" />
        </mxCell>
      </root>
    </mxGraphModel>
  </diagram>
</mxfile>
